# xmcd
#
# Track frame offsets: 
#        150
#        13805
#        27322
#        39921
#        52124
#        66148
#        78441
#        92393
#        104821
#        117099
#        130378
#        143516
#        156540
#        170319
#        182846
#        194941
#        207184
#        218525
#        230417
#        241781
#        253814
#        265269
#        276930
#        288686
#        300944
#
# Disc length: 4167 seconds
#
# Revision: 0
# Processed by: cddbd v1.5.2PL0 Copyright (c) Steve Scherf et al.
# Submitted via: ExactAudioCopy v1.3
#
DISCID=6f104519
DTITLE=Bryant's Jubilee Quartet-Quintette - Complete Recorded Works (1
DTITLE=928-1931)
DYEAR=1996
DGENRE=Gospel
TTITLE0=Creep Along, Moses
TTITLE1=This Old World Can't Stand Much Longer
TTITLE2=Do You Call That Religion
TTITLE3=Hard Trials -- Great Tribulations
TTITLE4=Ezikiel Saw de Wheel
TTITLE5=Every Time I Feel the Spirit
TTITLE6=South Bound Passenger Train
TTITLE7=Who Stole de Lock Off de Henhouse Door
TTITLE8=When the World's on Fire
TTITLE9=South Bound Passenger Train
TTITLE10=Let Jesus Lead You
TTITLE11=Were You There?
TTITLE12=Who Stole de Lock?
TTITLE13=Everytime I Feel the Spirit
TTITLE14=I'm Going Through
TTITLE15=Shine on Me
TTITLE16=Some Day
TTITLE17=When the World's on Fire
TTITLE18=This Train
TTITLE19=King Jesus Is Listening
TTITLE20=I Want to Be Ready
TTITLE21=Sinner You Better Get Ready
TTITLE22=Oh Lord How Long?
TTITLE23=Hold the Wind
TTITLE24=Oh Rocks Don't You Fall on Me
EXTD=
EXTT0=
EXTT1=
EXTT2=
EXTT3=
EXTT4=
EXTT5=
EXTT6=
EXTT7=
EXTT8=
EXTT9=
EXTT10=
EXTT11=
EXTT12=
EXTT13=
EXTT14=
EXTT15=
EXTT16=
EXTT17=
EXTT18=
EXTT19=
EXTT20=
EXTT21=
EXTT22=
EXTT23=
EXTT24=
PLAYORDER=
